<svg width="1200" height="340" viewBox="0 0 1200 340" fill="none" xmlns="http://www.w3.org/2000/svg">
  <title>徐雨姗 Xiaorui — AI Product Manager</title>
  <defs>
    <filter id="shadow" x="-20" y="-20" width="1240" height="390" filterUnits="userSpaceOnUse">
      <feDropShadow dx="0" dy="10" stdDeviation="18" flood-color="#173042" flood-opacity="0.10" />
    </filter>
    <pattern id="grid" width="28" height="28" patternUnits="userSpaceOnUse">
      <path d="M 28 0 L 0 0 0 28" fill="none" stroke="#DDE4DE" stroke-width="1" opacity="0.55" />
    </pattern>
  </defs>

  <rect x="12" y="12" width="1176" height="316" rx="24" fill="#F7F5EF" stroke="#BECBC5" stroke-width="2" filter="url(#shadow)" />
  <rect x="13" y="54" width="1174" height="273" rx="0" fill="url(#grid)" opacity="0.55" />
  <path d="M36 54H1164" stroke="#CFD9D3" stroke-width="1.5" />

  <circle cx="39" cy="33" r="7" fill="#D96B52" />
  <circle cx="63" cy="33" r="7" fill="#E8B84D" />
  <circle cx="87" cy="33" r="7" fill="#4F8F80" />
  <text x="600" y="38" fill="#60736D" font-size="13" font-family="SFMono-Regular, Menlo, Consolas, monospace" text-anchor="middle">xiaoruixsss@github — /profile</text>

  <rect x="42" y="84" width="88" height="88" rx="22" fill="#193446" />
  <path d="M62 146C70 122 86 109 110 106" stroke="#F7F5EF" stroke-width="3" stroke-linecap="round" />
  <path d="M61 134C77 136 93 127 103 112" stroke="#79B5A4" stroke-width="2.5" stroke-linecap="round" />
  <circle cx="62" cy="146" r="6" fill="#D96B52" stroke="#F7F5EF" stroke-width="2" />
  <circle cx="110" cy="106" r="7" fill="#E8B84D" stroke="#F7F5EF" stroke-width="2" />
  <path d="M83 96L87 103L95 104L89 110L91 118L83 114L76 118L77 110L71 104L79 103L83 96Z" fill="#F7F5EF" />

  <text x="153" y="108" fill="#193446" font-size="31" font-weight="700" font-family="-apple-system, BlinkMacSystemFont, 'Segoe UI', 'PingFang SC', sans-serif">徐雨姗 · XIAORUI</text>
  <text x="153" y="140" fill="#2F6F63" font-size="17" font-weight="650" letter-spacing="1.4" font-family="-apple-system, BlinkMacSystemFont, 'Segoe UI', 'PingFang SC', sans-serif">AI PRODUCT MANAGER</text>
  <text x="153" y="168" fill="#64756F" font-size="12.5" letter-spacing="0.7" font-family="SFMono-Regular, Menlo, Consolas, monospace">HUNAN UNIVERSITY · STATISTICS · 2027</text>

  <path d="M428 75V280" stroke="#C9D4CE" stroke-width="1.5" stroke-dasharray="5 6" />

  <text x="462" y="96" fill="#60736D" font-size="12" font-weight="700" letter-spacing="1.4" font-family="SFMono-Regular, Menlo, Consolas, monospace">FOCUS / 关注方向</text>

  <rect x="462" y="116" width="288" height="40" rx="12" fill="#E4EFEA" stroke="#A9C8BD" />
  <circle cx="485" cy="136" r="6" fill="#2F6F63" />
  <text x="503" y="141" fill="#193446" font-size="14" font-weight="650" font-family="-apple-system, BlinkMacSystemFont, 'Segoe UI', 'PingFang SC', sans-serif">Agent &amp; Workflow</text>

  <rect x="462" y="168" width="288" height="40" rx="12" fill="#FFF0D1" stroke="#E2C374" />
  <circle cx="485" cy="188" r="6" fill="#D39B2A" />
  <text x="503" y="193" fill="#193446" font-size="14" font-weight="650" font-family="-apple-system, BlinkMacSystemFont, 'Segoe UI', 'PingFang SC', sans-serif">Data Products &amp; Insight</text>

  <rect x="462" y="220" width="288" height="40" rx="12" fill="#F6E4DF" stroke="#D7A294" />
  <circle cx="485" cy="240" r="6" fill="#D96B52" />
  <text x="503" y="245" fill="#193446" font-size="14" font-weight="650" font-family="-apple-system, BlinkMacSystemFont, 'Segoe UI', 'PingFang SC', sans-serif">AI Coding &amp; Prototyping</text>

  <rect x="790" y="78" width="356" height="194" rx="18" fill="#193446" />
  <circle cx="818" cy="103" r="5" fill="#79B5A4" />
  <text x="833" y="108" fill="#DCE9E4" font-size="12" font-family="SFMono-Regular, Menlo, Consolas, monospace">profile.status</text>
  <path d="M816 124H1120" stroke="#355366" />

  <text x="816" y="149" fill="#79B5A4" font-size="12" font-family="SFMono-Regular, Menlo, Consolas, monospace">goal</text>
  <text x="884" y="149" fill="#F7F5EF" font-size="12" font-family="SFMono-Regular, Menlo, Consolas, monospace">AI product opportunities</text>

  <text x="816" y="178" fill="#E8B84D" font-size="12" font-family="SFMono-Regular, Menlo, Consolas, monospace">method</text>
  <text x="884" y="178" fill="#F7F5EF" font-size="12" font-family="SFMono-Regular, Menlo, Consolas, monospace">discover → build → validate</text>

  <text x="816" y="207" fill="#E78A75" font-size="12" font-family="SFMono-Regular, Menlo, Consolas, monospace">building</text>
  <text x="884" y="207" fill="#F7F5EF" font-size="12" font-family="SFMono-Regular, Menlo, Consolas, monospace">Wandr · data agents</text>

  <rect x="816" y="230" width="8" height="14" fill="#79B5A4" />
  <text x="834" y="241" fill="#96AFA6" font-size="10.5" font-family="SFMono-Regular, Menlo, Consolas, monospace">EVIDENCE OVER ASSUMPTION</text>

  <rect x="42" y="292" width="370" height="24" rx="12" fill="#193446" />
  <text x="227" y="308" fill="#F7F5EF" font-size="11.5" letter-spacing="0.8" font-family="SFMono-Regular, Menlo, Consolas, monospace" text-anchor="middle">FROM PROBLEM → PRODUCT → EVIDENCE</text>
  <circle cx="1134" cy="304" r="5" fill="#2F6F63" />
  <text x="1120" y="308" fill="#60736D" font-size="10" font-family="SFMono-Regular, Menlo, Consolas, monospace" text-anchor="end">AVAILABLE</text>
</svg>
